<svg width="466" height="466" viewBox="0 0 466 466" fill="none" xmlns="http://www.w3.org/2000/svg">
<rect width="466" height="466" fill="white"/>
<g filter="url(#filter0_df_25_319)">
<path fill-rule="evenodd" clip-rule="evenodd" d="M91.5 178C91.5 100.128 154.628 37 232.5 37C310.372 37 373.5 100.128 373.5 178V192.303C383.366 193.533 391 201.949 391 212.148V254.962C391 264.419 384.437 272.342 375.617 274.426V333.514C375.617 345.94 365.544 356.014 353.117 356.014H312.925L309.5 360.719V420.5C309.5 425.194 305.694 429 301 429H165C160.306 429 156.5 425.194 156.5 420.5V361.648L119.135 310.317C118.071 308.856 117.497 306.951 117.497 304.885V274.962H113.393H95C83.9543 274.962 75 266.008 75 254.962V212.148C75 202.297 82.1231 194.109 91.5 192.454V178ZM118.346 192.148C120.09 177.108 124.494 162.119 131.323 148.18C150.632 108.763 186.508 83.1828 222.479 83.1828H242.045C279.859 83.1828 312.616 104.526 330.345 140.717L332.861 145.852C339.741 159.896 344.321 175.556 346.451 192.148H352.607H358.5V178C358.5 108.412 302.088 52 232.5 52C162.912 52 106.5 108.412 106.5 178V192.148H113.393H118.346ZM347.827 274.962V304.166C347.827 306.667 346.986 309.223 345.483 311.287L323.844 341.014H353.117C357.259 341.014 360.617 337.656 360.617 333.514V274.962H352.607H347.827ZM307.204 341.014L329.89 309.848H304.372H298.033L297.874 303.511L297.499 288.496C290.833 286.025 286.083 279.609 286.083 272.083C286.083 262.418 293.918 254.583 303.583 254.583C313.248 254.583 321.083 262.418 321.083 272.083C321.083 279.293 316.722 285.484 310.495 288.165L310.712 296.848H334.09L334.09 222.586H307.706C304.949 228.63 298.853 232.831 291.776 232.831C282.111 232.831 274.276 224.996 274.276 215.331C274.276 205.666 282.111 197.831 291.776 197.831C298.66 197.831 304.616 201.806 307.473 207.586H333.839C332.77 188.776 328.301 171.02 320.686 155.475L318.17 150.34C309.038 131.697 295.406 117.5 279.01 108.878V167.686V170.869L276.722 173.08L246.866 201.924V242.571C253.201 245.203 257.655 251.45 257.655 258.738C257.655 268.403 249.82 276.238 240.155 276.238C230.49 276.238 222.655 268.403 222.655 258.738C222.655 252.072 226.382 246.277 231.866 243.322V198.741V195.559L234.155 193.347L264.01 164.504V102.787C256.347 100.523 248.268 99.347 239.909 99.347H221.514V131.183V134.289L219.317 136.486L206.259 149.545V163.263C212.303 166.02 216.504 172.116 216.504 179.193C216.504 188.858 208.669 196.693 199.004 196.693C189.339 196.693 181.504 188.858 181.504 179.193C181.504 172.309 185.479 166.353 191.259 163.496V146.438V143.331L193.455 141.135L206.514 128.076V100.809C180.903 106.199 156.876 126.131 142.97 154.516C135.301 170.171 131.234 187.387 131.234 204.197V227.586H158.294C161.052 221.542 167.147 217.341 174.224 217.341C183.889 217.341 191.724 225.176 191.724 234.841C191.724 244.506 183.889 252.341 174.224 252.341C167.34 252.341 161.384 248.366 158.527 242.586H131.234V296.938L158.294 296.938C161.052 290.894 167.147 286.693 174.224 286.693C183.889 286.693 191.724 294.528 191.724 304.193C191.724 313.858 183.889 321.693 174.224 321.693C167.34 321.693 161.384 317.718 158.527 311.938L139.742 311.938L192.62 384.579H275.491L294.5 358.466V356.5H295.931L296.285 356.014H264.158C261.245 362.817 254.489 367.583 246.621 367.583H219.379C208.848 367.583 200.31 359.045 200.31 348.514C200.31 337.982 208.848 329.445 219.379 329.445H246.621C254.489 329.445 261.245 334.211 264.158 341.014H307.204ZM95 207.148H113.393V259.962H95C92.2386 259.962 90 257.723 90 254.962V212.148C90 209.387 92.2386 207.148 95 207.148ZM371 259.962H352.607V207.148H371C373.761 207.148 376 209.387 376 212.148V254.962C376 257.723 373.761 259.962 371 259.962ZM246.621 341.445H219.379C215.475 341.445 212.31 344.61 212.31 348.514C212.31 352.418 215.475 355.583 219.379 355.583H246.621C250.525 355.583 253.69 352.418 253.69 348.514C253.69 344.61 250.525 341.445 246.621 341.445ZM283.339 396.657L294.5 381.325V414H171.5V382.254L182.951 397.985C184.238 399.753 186.149 400.743 188.274 400.743H276.159C278.798 400.743 281.474 399.22 283.339 396.657ZM207.504 179.193C207.504 183.887 203.698 187.693 199.004 187.693C194.309 187.693 190.504 183.887 190.504 179.193C190.504 174.499 194.309 170.693 199.004 170.693C203.698 170.693 207.504 174.499 207.504 179.193ZM291.776 223.831C287.081 223.831 283.276 220.025 283.276 215.331C283.276 210.637 287.081 206.831 291.776 206.831C296.47 206.831 300.276 210.637 300.276 215.331C300.276 220.025 296.47 223.831 291.776 223.831ZM295.083 272.083C295.083 276.777 298.888 280.583 303.583 280.583C308.277 280.583 312.083 276.777 312.083 272.083C312.083 267.388 308.277 263.583 303.583 263.583C298.888 263.583 295.083 267.388 295.083 272.083ZM174.224 226.341C178.919 226.341 182.724 230.147 182.724 234.841C182.724 239.536 178.919 243.341 174.224 243.341C169.53 243.341 165.724 239.536 165.724 234.841C165.724 230.147 169.53 226.341 174.224 226.341ZM182.724 304.193C182.724 299.499 178.919 295.693 174.224 295.693C169.53 295.693 165.724 299.499 165.724 304.193C165.724 308.888 169.53 312.693 174.224 312.693C178.919 312.693 182.724 308.888 182.724 304.193ZM248.655 258.738C248.655 263.432 244.85 267.238 240.155 267.238C235.461 267.238 231.655 263.432 231.655 258.738C231.655 254.043 235.461 250.238 240.155 250.238C244.85 250.238 248.655 254.043 248.655 258.738Z" fill="url(#paint0_linear_25_319)"/>
</g>
<defs>
<filter id="filter0_df_25_319" x="55" y="21" width="356" height="432" filterUnits="userSpaceOnUse" color-interpolation-filters="sRGB">
<feFlood flood-opacity="0" result="BackgroundImageFix"/>
<feColorMatrix in="SourceAlpha" type="matrix" values="0 0 0 0 0 0 0 0 0 0 0 0 0 0 0 0 0 0 127 0" result="hardAlpha"/>
<feOffset dy="4"/>
<feGaussianBlur stdDeviation="10"/>
<feComposite in2="hardAlpha" operator="out"/>
<feColorMatrix type="matrix" values="0 0 0 0 0 0 0 0 0 0 0 0 0 0 0 0 0 0 0.2 0"/>
<feBlend mode="normal" in2="BackgroundImageFix" result="effect1_dropShadow_25_319"/>
<feBlend mode="normal" in="SourceGraphic" in2="effect1_dropShadow_25_319" result="shape"/>
<feGaussianBlur stdDeviation="1" result="effect2_foregroundBlur_25_319"/>
</filter>
<linearGradient id="paint0_linear_25_319" x1="344.888" y1="37" x2="46.736" y2="367.389" gradientUnits="userSpaceOnUse">
<stop stop-color="#1B0054"/>
<stop offset="1" stop-color="#00654D"/>
</linearGradient>
</defs>
</svg>
